<svg width="82" height="20" viewBox="0 0 82 20" fill="none" xmlns="http://www.w3.org/2000/svg">
<circle cx="10" cy="10" r="9" transform="rotate(90 10 10)" stroke="#4F4FFF" stroke-width="2"/>
<path d="M7.55317 9.99995L10.8094 6.74683L11.6907 7.62808L9.32192 9.99995L11.6907 12.3718L10.8094 13.2531L7.55317 9.99995Z" fill="#4F4FFF"/>
<path d="M40.8832 3.986L35.6272 17H33.4402L28.1842 3.986H30.1282C30.3382 3.986 30.5092 4.037 30.6412 4.139C30.7732 4.241 30.8722 4.373 30.9382 4.535L34.0072 12.473C34.1092 12.731 34.2052 13.016 34.2952 13.328C34.3912 13.634 34.4812 13.955 34.5652 14.291C34.6372 13.955 34.7152 13.634 34.7992 13.328C34.8832 13.016 34.9762 12.731 35.0782 12.473L38.1292 4.535C38.1772 4.397 38.2702 4.271 38.4082 4.157C38.5522 4.043 38.7262 3.986 38.9302 3.986H40.8832ZM44.9414 7.622C45.6254 7.622 46.2464 7.733 46.8044 7.955C47.3684 8.177 47.8484 8.492 48.2444 8.9C48.6464 9.308 48.9554 9.806 49.1714 10.394C49.3874 10.982 49.4954 11.639 49.4954 12.365C49.4954 13.097 49.3874 13.757 49.1714 14.345C48.9554 14.933 48.6464 15.434 48.2444 15.848C47.8484 16.262 47.3684 16.58 46.8044 16.802C46.2464 17.024 45.6254 17.135 44.9414 17.135C44.2514 17.135 43.6244 17.024 43.0604 16.802C42.4964 16.58 42.0134 16.262 41.6114 15.848C41.2154 15.434 40.9064 14.933 40.6844 14.345C40.4684 13.757 40.3604 13.097 40.3604 12.365C40.3604 11.639 40.4684 10.982 40.6844 10.394C40.9064 9.806 41.2154 9.308 41.6114 8.9C42.0134 8.492 42.4964 8.177 43.0604 7.955C43.6244 7.733 44.2514 7.622 44.9414 7.622ZM44.9414 15.425C45.7094 15.425 46.2764 15.167 46.6424 14.651C47.0144 14.135 47.2004 13.379 47.2004 12.383C47.2004 11.387 47.0144 10.628 46.6424 10.106C46.2764 9.584 45.7094 9.323 44.9414 9.323C44.1614 9.323 43.5824 9.587 43.2044 10.115C42.8324 10.637 42.6464 11.393 42.6464 12.383C42.6464 13.373 42.8324 14.129 43.2044 14.651C43.5824 15.167 44.1614 15.425 44.9414 15.425ZM53.8414 3.626V17H51.6184V3.626H53.8414ZM64.7812 7.766L61.1182 17H59.1022L55.4392 7.766H57.2752C57.4432 7.766 57.5812 7.805 57.6892 7.883C57.8032 7.961 57.8782 8.06 57.9142 8.18L59.6962 13.112C59.7922 13.4 59.8762 13.682 59.9482 13.958C60.0202 14.234 60.0832 14.51 60.1372 14.786C60.1972 14.51 60.2632 14.234 60.3352 13.958C60.4072 13.682 60.4942 13.4 60.5962 13.112L62.4142 8.18C62.4562 8.06 62.5312 7.961 62.6392 7.883C62.7472 7.805 62.8762 7.766 63.0262 7.766H64.7812ZM72.0337 11.321C72.0337 11.033 71.9917 10.763 71.9077 10.511C71.8297 10.253 71.7097 10.028 71.5477 9.836C71.3857 9.644 71.1787 9.494 70.9267 9.386C70.6807 9.272 70.3927 9.215 70.0627 9.215C69.4207 9.215 68.9137 9.398 68.5417 9.764C68.1757 10.13 67.9417 10.649 67.8397 11.321H72.0337ZM67.7947 12.662C67.8307 13.136 67.9147 13.547 68.0467 13.895C68.1787 14.237 68.3527 14.522 68.5687 14.75C68.7847 14.972 69.0397 15.14 69.3337 15.254C69.6337 15.362 69.9637 15.416 70.3237 15.416C70.6837 15.416 70.9927 15.374 71.2507 15.29C71.5147 15.206 71.7427 15.113 71.9347 15.011C72.1327 14.909 72.3037 14.816 72.4477 14.732C72.5977 14.648 72.7417 14.606 72.8797 14.606C73.0657 14.606 73.2037 14.675 73.2937 14.813L73.9327 15.623C73.6867 15.911 73.4107 16.154 73.1047 16.352C72.7987 16.544 72.4777 16.7 72.1417 16.82C71.8117 16.934 71.4727 17.015 71.1247 17.063C70.7827 17.111 70.4497 17.135 70.1257 17.135C69.4837 17.135 68.8867 17.03 68.3347 16.82C67.7827 16.604 67.3027 16.289 66.8947 15.875C66.4867 15.455 66.1657 14.939 65.9317 14.327C65.6977 13.709 65.5807 12.995 65.5807 12.185C65.5807 11.555 65.6827 10.964 65.8867 10.412C66.0907 9.854 66.3817 9.371 66.7597 8.963C67.1437 8.549 67.6087 8.222 68.1547 7.982C68.7067 7.742 69.3277 7.622 70.0177 7.622C70.5997 7.622 71.1367 7.715 71.6287 7.901C72.1207 8.087 72.5437 8.36 72.8977 8.72C73.2517 9.074 73.5277 9.512 73.7257 10.034C73.9297 10.55 74.0317 11.141 74.0317 11.807C74.0317 12.143 73.9957 12.371 73.9237 12.491C73.8517 12.605 73.7137 12.662 73.5097 12.662H67.7947ZM78.197 9.368C78.485 8.816 78.827 8.384 79.223 8.072C79.619 7.754 80.087 7.595 80.627 7.595C81.053 7.595 81.395 7.688 81.653 7.874L81.509 9.539C81.479 9.647 81.434 9.725 81.374 9.773C81.32 9.815 81.245 9.836 81.149 9.836C81.059 9.836 80.924 9.821 80.744 9.791C80.57 9.761 80.399 9.746 80.231 9.746C79.985 9.746 79.766 9.782 79.574 9.854C79.382 9.926 79.208 10.031 79.052 10.169C78.902 10.301 78.767 10.463 78.647 10.655C78.533 10.847 78.425 11.066 78.323 11.312V17H76.1V7.766H77.405C77.633 7.766 77.792 7.808 77.882 7.892C77.972 7.97 78.032 8.114 78.062 8.324L78.197 9.368Z" fill="#4F4FFF"/>
</svg>
